<svg width="40" height="41" viewBox="0 0 40 41" fill="none" xmlns="http://www.w3.org/2000/svg">
<path d="M8.51562 32.0638C7.07813 30.6405 8.03125 27.6547 7.29688 25.9066C6.5625 24.1585 3.75 22.6269 3.75 20.6931C3.75 18.7593 6.53125 17.2896 7.29688 15.4796C8.0625 13.6696 7.07813 10.7457 8.51562 9.32244C9.95312 7.89918 12.9688 8.84287 14.7344 8.11576C16.5 7.38866 18.0469 4.604 20 4.604C21.9531 4.604 23.4375 7.35772 25.2656 8.11576C27.0937 8.87381 30.0469 7.89918 31.4844 9.32244C32.9219 10.7457 31.9688 13.7315 32.7031 15.4796C33.4375 17.2278 36.25 18.7593 36.25 20.6931C36.25 22.6269 33.4688 24.0966 32.7031 25.9066C31.9375 27.7166 32.9219 30.6405 31.4844 32.0638C30.0469 33.487 27.0312 32.5434 25.2656 33.2705C23.5 33.9976 21.9531 36.7822 20 36.7822C18.0469 36.7822 16.5625 34.0285 14.7344 33.2705C12.9063 32.5124 9.95312 33.487 8.51562 32.0638Z" stroke="#036AB5" stroke-width="3" stroke-linecap="round" stroke-linejoin="round"/>
<path d="M26.875 16.98L17.7031 25.6433L13.125 21.3117" stroke="#036AB5" stroke-width="3" stroke-linecap="round" stroke-linejoin="round"/>
</svg>
