<svg width="49" height="49" viewBox="0 0 49 49" fill="none" xmlns="http://www.w3.org/2000/svg">
<path d="M45.2786 16.4728C45.4313 15.6544 45.5086 14.8236 45.5096 13.9911C45.5003 6.25845 39.2243 -0.00248547 31.4917 0.00684636C25.6052 0.0139221 20.3519 3.70205 18.3457 9.23603C14.7536 7.8061 10.6823 9.55885 9.2523 13.151C9.12852 13.4619 9.0272 13.7812 8.94917 14.1066C3.21347 14.9644 -0.74076 20.3095 0.117051 26.0452C0.886363 31.1893 5.30555 34.9951 10.5068 34.9929H19.2575C20.2241 34.9929 21.0076 34.2093 21.0076 33.2427C21.0076 32.2761 20.2241 31.4925 19.2575 31.4925H10.5068C6.64041 31.4925 3.50615 28.3583 3.50615 24.4919C3.50615 20.6256 6.64041 17.4913 10.5068 17.4913C11.4734 17.4913 12.2569 16.7077 12.2569 15.7411C12.2601 13.808 13.8298 12.2434 15.7629 12.2466C16.6772 12.2482 17.5545 12.6073 18.2074 13.2472C18.8958 13.9256 20.0039 13.9175 20.6824 13.2291C20.9371 12.9706 21.1052 12.6394 21.1633 12.2811C22.1133 6.56579 27.5165 2.70282 33.2318 3.65282C38.9471 4.60282 42.8101 10.0061 41.8601 15.7213C41.8035 16.0621 41.7299 16.3999 41.64 16.7334C41.4388 17.4639 41.7305 18.2409 42.3629 18.6585C45.5845 20.7961 46.4632 25.1407 44.3255 28.3624C43.0317 30.3123 40.8492 31.4868 38.509 31.4923H33.2586C32.292 31.4923 31.5084 32.2759 31.5084 33.2425C31.5084 34.2091 32.292 34.9927 33.2586 34.9927H38.509C44.3085 34.9873 49.0055 30.2814 48.9999 24.4819C48.9971 21.3951 47.6361 18.4658 45.2786 16.4728Z" fill="#046AB5"/>
<path d="M36.2065 37.2548C35.5282 36.5998 34.453 36.5998 33.7748 37.2548L28.0081 43.0181V17.4904C28.0081 16.5238 27.2245 15.7402 26.2579 15.7402C25.2913 15.7402 24.5077 16.5238 24.5077 17.4904V43.018L18.7445 37.2547C18.0492 36.5832 16.9413 36.6025 16.2698 37.2977C15.6147 37.9759 15.6147 39.0511 16.2698 39.7294L25.0205 48.4801C25.703 49.1644 26.8113 49.1658 27.4956 48.4832C27.4966 48.4821 27.4976 48.4811 27.4987 48.4801L36.2494 39.7294C36.921 39.0342 36.9017 37.9263 36.2065 37.2548Z" fill="#046AB5"/>
</svg>
