<svg width="49" height="49" viewBox="0 0 49 49" fill="none" xmlns="http://www.w3.org/2000/svg">
<g clip-path="url(#clip0)">
<path d="M47.4972 20.7732L44.7618 17.9455L45.3128 14.05C45.7162 11.1965 43.7356 8.47047 40.897 7.97289L37.0225 7.29288L35.1784 3.81766C34.2423 2.05313 32.4019 0.957031 30.3756 0.957031C29.5539 0.957031 28.7663 1.13872 28.0339 1.49648L24.4996 3.224L20.9657 1.49648C20.2334 1.13834 19.4457 0.957031 18.624 0.957031C16.5981 0.957031 14.7577 2.05313 13.8212 3.81766L11.9775 7.29288L8.10299 7.97289C5.26442 8.47047 3.28344 11.1965 3.68719 14.0497L4.23785 17.9455L1.50247 20.7732C-0.500944 22.8443 -0.500944 26.2141 1.50247 28.2851L4.23785 31.1125L3.68719 35.0079C3.28344 37.8611 5.26442 40.5875 8.10299 41.0854L11.9775 41.7651L13.8216 45.2407C14.7577 47.0048 16.5981 48.1009 18.624 48.1009C19.4461 48.1009 20.2337 47.9196 20.9661 47.5615L24.5 45.8339L28.0339 47.5615C28.7663 47.9192 29.5539 48.1009 30.3756 48.1009H30.376C32.4019 48.1009 34.2423 47.0048 35.1787 45.2407L37.0229 41.7651L40.8974 41.0854C43.7356 40.5875 45.7166 37.8611 45.3128 35.0079L44.7621 31.1125L47.4975 28.2851C49.5009 26.2141 49.5009 22.8439 47.4972 20.7732ZM45.4336 26.2885L42.2103 29.6205C41.9023 29.9386 41.7587 30.3813 41.8208 30.8198L42.4697 35.4102C42.6555 36.7242 41.7082 38.0278 40.4009 38.257L35.8352 39.0581C35.3993 39.1347 35.0229 39.408 34.8154 39.7994L32.6422 43.8945C32.2119 44.7057 31.3222 45.2294 30.376 45.2294C29.9947 45.2294 29.6313 45.1461 29.2949 44.982L25.1303 42.946C24.9314 42.8488 24.7157 42.8002 24.5 42.8002C24.2839 42.8002 24.0682 42.8488 23.8693 42.946L19.7047 44.982C19.3687 45.1461 19.0049 45.2294 18.624 45.2294C17.6778 45.2294 16.788 44.7057 16.3578 43.8948L14.185 39.7994C13.9775 39.4084 13.6011 39.1347 13.1648 39.0581L8.59908 38.257C7.29176 38.0278 6.34444 36.7242 6.53024 35.4102L7.17923 30.8198C7.24129 30.3813 7.09736 29.9386 6.78969 29.6205L3.56606 26.2885C2.64343 25.3348 2.64343 23.7232 3.56606 22.7695L6.78969 19.4375C7.09736 19.1193 7.24129 18.6767 7.17923 18.2382L6.53024 13.6478C6.34444 12.3337 7.29176 11.0302 8.59908 10.801L13.1652 9.99986C13.6011 9.92322 13.9775 9.64994 14.185 9.2589L16.3578 5.16386C16.788 4.35262 17.6778 3.8285 18.624 3.8285C19.0049 3.8285 19.3687 3.91187 19.7047 4.07635L23.8693 6.11192C24.2671 6.30669 24.7325 6.30669 25.1303 6.11192L29.2949 4.07635C29.631 3.91187 29.9947 3.8285 30.3756 3.8285C31.3222 3.8285 32.2119 4.35262 32.6422 5.16348L34.8154 9.2589C35.0229 9.64994 35.3993 9.92322 35.8352 9.99986L40.4013 10.801C41.7082 11.0302 42.6555 12.3341 42.4697 13.6478L41.8208 18.2382C41.7587 18.6767 41.9023 19.1193 42.2103 19.4375L45.4336 22.7695C46.3562 23.7232 46.3562 25.3348 45.4336 26.2885Z" fill="#046AB5"/>
<path d="M24.5 9.53735C16.2336 9.53735 9.50825 16.2627 9.50825 24.5291C9.50825 32.7955 16.2336 39.5205 24.5 39.5205C32.7663 39.5205 39.4914 32.7955 39.4914 24.5291C39.4914 16.2627 32.7663 9.53735 24.5 9.53735ZM24.5 36.649C17.8168 36.649 12.3797 31.2122 12.3797 24.5291C12.3797 17.846 17.8168 12.4088 24.5 12.4088C31.1828 12.4088 36.6199 17.846 36.6199 24.5291C36.6199 31.2122 31.1828 36.649 24.5 36.649Z" fill="#046AB5"/>
<path d="M27.7618 17.8435C26.5569 17.8435 25.4241 18.3123 24.5718 19.1647L23.248 20.4884C22.6315 20.1808 21.947 20.0181 21.2375 20.0181C20.0322 20.0181 18.8995 20.4873 18.0482 21.3393C16.289 23.0982 16.289 25.96 18.0475 27.7189L20.2225 29.8939C21.0745 30.7459 22.2072 31.215 23.4125 31.215C24.6174 31.215 25.7501 30.7459 26.6025 29.8939L30.9517 25.5446C31.8037 24.6926 32.2733 23.5595 32.2729 22.3546C32.2729 21.1497 31.8037 20.0166 30.9514 19.1647C30.0998 18.3123 28.9666 17.8435 27.7618 17.8435ZM28.9214 23.5139L24.5721 27.8632C24.2622 28.1731 23.8506 28.3436 23.4125 28.3436C22.9743 28.3436 22.5627 28.1731 22.2528 27.8635L20.0778 25.6885C19.4386 25.0493 19.4389 24.0093 20.0786 23.3696C20.3877 23.0601 20.7993 22.8892 21.2375 22.8892C21.6756 22.8892 22.0876 23.0601 22.3971 23.3696C22.4173 23.3898 22.4383 23.4096 22.4596 23.4287C22.5893 23.5434 22.7343 23.6309 22.8876 23.6911C23.4207 23.9008 24.0424 23.7741 24.4506 23.3461L26.6021 21.1946C26.912 20.8851 27.3236 20.7146 27.7618 20.7146C28.1999 20.7146 28.6115 20.8851 28.921 21.1946C29.2309 21.5045 29.4018 21.9165 29.4018 22.3546C29.4018 22.7924 29.2313 23.2044 28.9214 23.5139Z" fill="#046AB5"/>
</g>
<defs>
<clipPath id="clip0">
<rect width="49" height="49" fill="white"/>
</clipPath>
</defs>
</svg>
