<svg width="49" height="49" viewBox="0 0 49 49" fill="none" xmlns="http://www.w3.org/2000/svg">
<path d="M45.1719 31.7734V11.4844C45.1719 9.37367 43.4545 7.65625 41.3438 7.65625H38.8555V9.57031C38.8555 10.6275 37.9986 11.4844 36.9414 11.4844C35.8842 11.4844 35.0273 10.6275 35.0273 9.57031V7.65625H26.3184V9.57031C26.3184 10.6275 25.4615 11.4844 24.4043 11.4844C23.3471 11.4844 22.4902 10.6275 22.4902 9.57031V7.65625H13.877V9.57031C13.877 10.6275 13.0201 11.4844 11.9629 11.4844C10.9057 11.4844 10.0488 10.6275 10.0488 9.57031V7.65625H7.65625C5.54555 7.65625 3.82812 9.37367 3.82812 11.4844V14.3555H39.4297C40.4869 14.3555 41.3438 15.2123 41.3438 16.2695C41.3438 17.3268 40.4869 18.1836 39.4297 18.1836H3.82812V41.3438C3.82812 43.4545 5.54555 45.1719 7.65625 45.1719H41.3438C43.4545 45.1719 45.1719 43.4545 45.1719 41.3438C45.1719 40.2865 46.0287 39.4297 47.0859 39.4297C48.1432 39.4297 49 40.2865 49 41.3438C49 45.5655 45.5655 49 41.3438 49H7.65625C3.43447 49 0 45.5655 0 41.3438V11.4844C0 7.2626 3.43447 3.82812 7.65625 3.82812H10.0488V1.91406C10.0488 0.856842 10.9057 0 11.9629 0C13.0201 0 13.877 0.856842 13.877 1.91406V3.82812H22.4902V1.91406C22.4902 0.856842 23.3471 0 24.4043 0C25.4615 0 26.3184 0.856842 26.3184 1.91406V3.82812H35.0273V1.91406C35.0273 0.856842 35.8842 0 36.9414 0C37.9986 0 38.8555 0.856842 38.8555 1.91406V3.82812H41.3438C45.5655 3.82812 49 7.2626 49 11.4844V31.7734C49 32.8307 48.1432 33.6875 47.0859 33.6875C46.0287 33.6875 45.1719 32.8307 45.1719 31.7734ZM25.457 41.3438C26.5143 41.3438 27.3711 40.4869 27.3711 39.4297V23.7344C27.3711 23.0039 26.9554 22.337 26.2997 22.0155C25.6436 21.694 24.8619 21.774 24.2847 22.2214L20.4565 25.1882C19.621 25.8357 19.4685 27.038 20.116 27.8735C20.7638 28.7094 21.9661 28.8616 22.8013 28.2141L23.543 27.6395V39.4297C23.543 40.4869 24.3998 41.3438 25.457 41.3438Z" fill="#046AB5"/>
</svg>
