<svg width="20" height="20" viewBox="0 0 20 20" fill="none" xmlns="http://www.w3.org/2000/svg">
<g clip-path="url(#clip0_2491_857)">
<path d="M18.75 15V7.5C18.75 6.80964 18.1904 6.25 17.5 6.25H13.75C13.0596 6.25 12.5 6.80964 12.5 7.5V15C12.5 15.6904 13.0596 16.25 13.75 16.25H17.5C18.1904 16.25 18.75 15.6904 18.75 15Z" stroke="black" stroke-linecap="round" stroke-linejoin="round"/>
<path d="M10 16.25H6.875" stroke="black" stroke-linecap="round" stroke-linejoin="round"/>
<path d="M12.5 13.75H3.125C2.79348 13.75 2.47554 13.6183 2.24112 13.3839C2.0067 13.1495 1.875 12.8315 1.875 12.5V5C1.875 4.66848 2.0067 4.35054 2.24112 4.11612C2.47554 3.8817 2.79348 3.75 3.125 3.75H14.375C14.7065 3.75 15.0245 3.8817 15.2589 4.11612C15.4933 4.35054 15.625 4.66848 15.625 5V6.25" stroke="black" stroke-linecap="round" stroke-linejoin="round"/>
<path d="M15 8.75H16.25" stroke="black" stroke-linecap="round" stroke-linejoin="round"/>
</g>
<defs>
<clipPath id="clip0_2491_857">
<rect width="20" height="20" fill="white"/>
</clipPath>
</defs>
</svg>
