<svg width="115" height="22" viewBox="0 0 115 22" fill="none" xmlns="http://www.w3.org/2000/svg">
<g clip-path="url(#clip0_2491_818)">
<path fill-rule="evenodd" clip-rule="evenodd" d="M10.0926 16.3969L4.16033 19.515L5.2933 12.9107L0.493968 8.23355L7.12648 7.27L10.0926 1.26123L13.0588 7.27L19.6913 8.23355L14.892 12.9107L16.0249 19.515L10.0926 16.3969Z" fill="#F78B1A"/>
</g>
<g clip-path="url(#clip1_2491_818)">
<path fill-rule="evenodd" clip-rule="evenodd" d="M32.7957 16.3969L26.8635 19.515L27.9964 12.9107L23.1971 8.23355L29.8296 7.27L32.7957 1.26123L35.7619 7.27L42.3944 8.23355L37.5951 12.9107L38.728 19.515L32.7957 16.3969Z" fill="#F78B1A"/>
</g>
<g clip-path="url(#clip2_2491_818)">
<path fill-rule="evenodd" clip-rule="evenodd" d="M55.4989 16.3969L49.5666 19.515L50.6995 12.9107L45.9002 8.23355L52.5327 7.27L55.4989 1.26123L58.465 7.27L65.0975 8.23355L60.2982 12.9107L61.4312 19.515L55.4989 16.3969Z" fill="#F78B1A"/>
</g>
<g clip-path="url(#clip3_2491_818)">
<path fill-rule="evenodd" clip-rule="evenodd" d="M78.204 16.3969L72.2717 19.515L73.4046 12.9107L68.6053 8.23355L75.2378 7.27L78.204 1.26123L81.1701 7.27L87.8026 8.23355L83.0033 12.9107L84.1362 19.515L78.204 16.3969Z" fill="#F78B1A"/>
</g>
<g clip-path="url(#clip4_2491_818)">
<path fill-rule="evenodd" clip-rule="evenodd" d="M100.907 16.3969L94.9748 19.515L96.1077 12.9107L91.3084 8.23355L97.9409 7.27L100.907 1.26123L103.873 7.27L110.506 8.23355L105.706 12.9107L106.839 19.515L100.907 16.3969Z" fill="#F78B1A"/>
</g>
<defs>
<clipPath id="clip0_2491_818">
<rect width="20.1809" height="20.1809" fill="white"/>
</clipPath>
<clipPath id="clip1_2491_818">
<rect width="20.1809" height="20.1809" fill="white" transform="translate(22.7031)"/>
</clipPath>
<clipPath id="clip2_2491_818">
<rect width="20.1809" height="20.1809" fill="white" transform="translate(45.4062)"/>
</clipPath>
<clipPath id="clip3_2491_818">
<rect width="20.1809" height="20.1809" fill="white" transform="translate(68.1113)"/>
</clipPath>
<clipPath id="clip4_2491_818">
<rect width="20.1809" height="20.1809" fill="white" transform="translate(90.8145)"/>
</clipPath>
</defs>
</svg>
